<?xml version="1.0" encoding="UTF-8" standalone="no"?>
<svg
   viewBox="0 0 1430.4234 445.49046"
   version="1.1"
   id="svg23"
   sodipodi:docname="logo.svg"
   inkscape:export-filename="G:\phuwit\Code\flaxibility\ui-assets\logo.png"
   inkscape:export-xdpi="96"
   inkscape:export-ydpi="96"
   inkscape:version="1.1.1 (3bf5ae0d25, 2021-09-20)"
   width="1430.4233"
   height="445.49045"
   xmlns:inkscape="http://www.inkscape.org/namespaces/inkscape"
   xmlns:sodipodi="http://sodipodi.sourceforge.net/DTD/sodipodi-0.dtd"
   xmlns="http://www.w3.org/2000/svg"
   xmlns:svg="http://www.w3.org/2000/svg">
  <sodipodi:namedview
     id="namedview25"
     pagecolor="#ffffff"
     bordercolor="#666666"
     borderopacity="1.0"
     inkscape:pageshadow="2"
     inkscape:pageopacity="0.0"
     inkscape:pagecheckerboard="0"
     showgrid="false"
     inkscape:zoom="0.8519216"
     inkscape:cx="628.57897"
     inkscape:cy="269.39099"
     inkscape:window-width="1920"
     inkscape:window-height="1017"
     inkscape:window-x="-8"
     inkscape:window-y="-8"
     inkscape:window-maximized="1"
     inkscape:current-layer="svg23"
     fit-margin-top="0"
     fit-margin-left="0"
     fit-margin-right="0"
     fit-margin-bottom="0"
     inkscape:snap-bbox="true"
     inkscape:bbox-paths="true"
     inkscape:bbox-nodes="true"
     inkscape:snap-bbox-edge-midpoints="true"
     inkscape:snap-bbox-midpoints="true"
     inkscape:snap-page="true" />
  <defs
     id="defs4">
    <style
       id="style2">.cls-1{fill:#673ab7;}.cls-2{fill:#5e35b1;}.cls-3{fill:#6f00ff;}</style>
    <pattern
       id="EMFhbasepattern"
       patternUnits="userSpaceOnUse"
       width="6"
       height="6"
       x="0"
       y="0" />
    <pattern
       id="EMFhbasepattern-5"
       patternUnits="userSpaceOnUse"
       width="6"
       height="6"
       x="0"
       y="0" />
  </defs>
  <g
     id="g1155"
     transform="matrix(0.60068971,0,0,0.60068971,240.18983,-403.36965)"
     style="stroke-width:26.636">
    <path
       style="color:#000000;fill:#673ab7;stroke-linecap:round;stroke-linejoin:round;-inkscape-stroke:none"
       d="m -121.14844,671.55078 c -30.35933,0.74914 -65.48822,19.71801 -96.69922,69.90039 -18.92429,30.4273 -32.05448,77.75683 -43.01562,134.29102 -10.96114,56.53418 -19.23401,122.00193 -25.92188,186.70701 -8.09304,78.3002 -13.92798,153.6373 -19.11523,211.8926 -5.05652,3.5446 -10.26076,7.437 -15.64453,11.7617 -44.52845,35.7688 -49.51594,81.0919 -35.01172,107.6074 3.62606,6.6289 8.55755,12.2826 15.16211,15.9161 6.60456,3.6334 15.30207,4.7431 23.00391,1.9335 15.40367,-5.6192 24.15364,-21.6359 28.91992,-45.8339 3.24283,-16.4637 6.1807,-44.4758 9.15039,-76.4825 25.75805,-16.2944 45.25117,-20.975 66.17383,-25.4902 27.0875,-5.8456 57.31836,-11.5162 96.82617,-40.5351 a 13.319355,13.319355 0 0 0 0.008,-0.01 c 17.566135,-12.926 31.973187,-36.3618 45.71875,-66.1191 10.279251,56.4392 36.034719,89.943 70.3671875,102 31.1837885,10.9511 66.0636385,4.3636 99.5390625,-11.334 6.09364,4.6199 12.70989,7.9507 19.48633,10.0097 18.2022,5.5308 36.65669,3.0857 51.77539,-1.584 15.11049,-4.667 26.29888,-10.003 34.01172,-19.0488 8.04709,-9.3274 16.42477,-21.823 23.98242,-37.2324 1.62705,7.5531 3.48336,14.8529 5.84961,21.5332 3.98703,11.256 9.09382,21.2522 16.90234,28.9531 7.80465,7.6972 19.23847,12.5043 31.08789,11.3496 25.85855,-2.4898 43.54275,-25.3165 60.3125,-52.7441 16.77111,-27.4298 32.15952,-61.8471 46.45313,-94.6973 14.29361,-32.8502 27.55753,-64.24 38.74414,-84.0859 2.31249,-4.1026 4.49623,-7.3182 6.5664,-10.2715 0.18016,25.1004 1.63008,70.8549 9.86524,117.207 5.99611,33.7496 15.26398,67.1454 31.67187,92.2481 8.20395,12.5513 18.4055,23.1728 31.32227,29.7461 12.91677,6.5733 28.39249,8.5842 44.64062,5.0176 31.72847,-6.9648 58.32994,-29.2114 80.90235,-57.0332 22.5724,-27.8218 41.36445,-61.7408 56.65625,-94.7032 4.68414,-10.0969 8.91913,-20.0043 12.93555,-29.7324 -0.39796,12.3005 -0.6524,24.8605 -0.5,37.5781 0.42444,35.4201 3.24407,70.8442 11.90429,98.8535 4.33011,14.0047 10.08325,26.3457 18.93164,35.8321 8.8484,9.4864 21.74077,15.5732 35.68946,14.8301 a 13.319355,13.319355 0 0 0 0.004,0 c 16.05574,-0.8602 27.6543,-12.4414 37.24219,-26.9043 8.81535,-13.2976 16.53472,-30.5546 23.7832,-50.5821 7.11004,16.7925 16.52638,31.6219 29.24414,43.3223 17.3226,15.935 33.95506,25.4784 50.40039,28.7305 16.44534,3.252 32.38175,-0.5248 45.12305,-9.0352 25.48261,-17.0208 40.1875,-49.6689 49.29103,-86.1484 9.1035,-36.4796 11.9637,-77.4078 8.666,-112.8184 -0.9386,-10.0786 -2.293,-19.7071 -4.1582,-28.7851 22.9233,-4.1418 46.9319,-13.2807 69.0117,-30.44145 -5.1406,24.68435 -10.8532,56.12305 -14.3906,88.80465 -3.822,35.3112 -5.2082,71.7294 -0.041,102.6153 5.1672,30.8858 17.6981,58.6604 44.5508,68.455 a 13.319355,13.319355 0 0 0 0.014,0 c 7.8492,2.8542 16.3546,1.1194 22.8731,-2.3516 6.5185,-3.471 12.0506,-8.5216 17.5723,-14.7441 11.0432,-12.4451 21.9389,-29.9715 33.1171,-51.3555 9.0894,-17.388 18.2276,-37.7319 27.211,-59.211 2.5926,17.2024 5.8382,33.5512 9.9883,48.3809 6.3403,22.6562 14.5242,42.1025 26.08,56.8281 11.5559,14.7257 27.8275,24.808 46.5332,24.5879 a 13.319355,13.319355 0 0 0 0.02,0 c 30.7053,-0.4094 54.5666,-20.7757 71.3164,-47.209 1.9579,-3.0898 3.8259,-6.2964 5.6367,-9.5683 1.3669,3.4001 2.8208,6.7391 4.4238,9.9629 13.8412,27.834 39.4273,48.7215 74.6524,48.1465 16.8651,-0.2572 30.7584,-10.8998 42.75,-25.2735 11.9925,-14.3748 22.8542,-33.5561 33.2304,-56.1523 6.6397,-14.4592 13.0178,-30.431 19.1602,-47.2461 1.1841,15.2778 2.9377,29.8547 5.5391,43.2051 4.4298,22.7341 10.9686,42.3293 21.6191,57.3632 10.6479,15.0303 26.9883,25.3154 45.9668,25.1036 36.6844,-0.2972 64.7835,-19.9374 83.1621,-46.9688 0.6697,-0.985 1.2502,-2.0468 1.8984,-3.0508 4.7443,11.5842 10.8204,21.9448 19.2618,29.9961 9.8456,9.3907 23.2588,15.238 38.0644,15.0235 33.2133,-0.4885 58.3341,-20.6231 74.4024,-47.2266 0.4852,9.664 1.2706,22.8604 1.4218,28.9101 0.4333,17.3327 1.0297,34.4894 0.3926,50.5528 -11.5124,0.9248 -23.3547,1.2193 -35.2168,1.6387 -16.7635,0.5926 -33.4198,1.5228 -49.0742,6.5703 -15.6544,5.0474 -30.3985,15.0768 -39.7363,31.7226 a 13.319355,13.319355 0 0 0 -0.018,0.031 c -9.5315,17.1005 -12.9406,32.7105 -8.8965,46.4062 4.0441,13.6958 15.6113,22.8184 28.0586,26.9317 24.8945,8.2265 56.2348,2.4957 81.9258,-12.7286 a 13.319355,13.319355 0 0 0 0.018,-0.012 c 28.1241,-16.7224 41.5008,-42.9477 46.6132,-69.9707 0.4235,-2.2381 0.7305,-4.4983 1.0625,-6.7539 16.1989,-2.9675 32.4267,-8.2096 47.5723,-18.3066 26.1962,-17.4642 36.4092,-39.4451 43.5703,-60.7559 7.1611,-21.3108 12.4071,-42.4916 30.5508,-67.9238 a 13.318024,13.318024 0 0 0 -3.1074,-18.5781 13.318024,13.318024 0 0 0 -18.5762,3.1074 c -20.8563,29.2344 -27.445,55.0543 -34.1172,74.9101 -6.6722,19.8559 -12.292,33.2071 -33.0957,47.0762 -9.3172,6.2115 -19.6784,10.1169 -30.6699,12.6895 0.3957,-16.0073 -0.2469,-31.9928 -0.6289,-47.2735 -0.4543,-18.1708 -2.419,-52.5208 -4.418,-89.3925 2.5952,-10.8696 4.6854,-21.9416 6.2852,-32.9903 4.821,-33.2953 5.5029,-66.1608 4.0312,-91.2168 -0.7358,-12.528 -1.9767,-23.02534 -3.7226,-31.15233 -0.873,-4.06349 -1.7783,-7.47094 -3.3672,-10.92578 -0.7945,-1.72741 -1.6993,-3.51791 -3.6445,-5.62304 -1.9453,-2.10514 -5.8244,-5.01758 -11.1446,-5.01758 -4.2419,0 -8.2714,2.15718 -10.4629,4.24023 -2.1914,2.08305 -3.2163,4.00669 -4.0117,5.71485 -1.5908,3.41632 -2.2118,6.38426 -2.8008,9.79101 -1.178,6.8135 -1.7164,15.17754 -1.9961,25.28714 -0.5592,20.2192 0.1266,47.0318 1.2989,75.5 0.7316,17.7694 1.7364,35.2695 2.6836,53.0058 -4.7775,18.9142 -11.0614,36.5934 -19.3848,50.4785 -13.1077,21.8666 -28.8897,34.3065 -52.1856,34.6504 -8.1943,0.1188 -13.6978,-2.3256 -19.2949,-7.664 -5.597,-5.3385 -10.818,-14.0801 -14.9121,-25.5098 -2.1455,-5.9898 -3.933,-12.7257 -5.459,-19.9101 6.9993,-18.376 11.8794,-38.0768 15.1993,-57.7598 5.758,-34.1386 6.8879,-68.125 5.7402,-94.5879 -0.5739,-13.2315 -1.704,-24.53805 -3.2383,-33.3418 -0.7671,-4.40187 -1.6064,-8.14833 -2.7363,-11.55469 -1.1299,-3.40636 -0.93,-6.68846 -7.4688,-11.26562 -3.8689,-2.70824 -11.4584,-2.90773 -15.2207,-0.90235 -3.7622,2.00539 -5.1171,4.14569 -6.2773,5.89649 -2.3205,3.50159 -3.4213,6.62884 -4.6856,10.51172 -2.5284,7.76575 -4.8047,18.10002 -6.9043,30.71875 -4.199,25.2374 -7.4526,59.1842 -7.3672,93.7187 0.056,22.5046 1.4933,45.1491 5.2305,65.961 -3.9258,9.2703 -8.3749,17.8791 -13.4726,25.3769 -14.98,22.0327 -33.5792,35.0951 -61.377,35.3106 a 13.319355,13.319355 0 0 0 -0.049,0 c -10.1823,0.1164 -16.8055,-3.7943 -23.9414,-13.8671 -7.1359,-10.0729 -13.2013,-26.4928 -17.209,-47.0606 -6.2694,-32.1751 -7.6964,-74.2267 -6.0938,-118.4199 3.3087,-11.7325 6.5853,-23.5152 9.6289,-35.3516 15.1207,-58.80271 26.7723,-117.36542 33.3575,-161.51951 3.2925,-22.07705 5.3282,-40.47017 5.8632,-53.99024 0.2675,-6.76003 0.2402,-12.17265 -0.5292,-17.16406 -0.3848,-2.49571 -0.7775,-4.88767 -2.5372,-8.12305 -1.7596,-3.23538 -7.5861,-8.56089 -14.2168,-8.14648 a 13.319355,13.319355 0 0 0 -0.057,0.004 c -6.9397,0.46265 -9.7367,4.15159 -11.5371,6.38867 -1.8005,2.23708 -2.8919,4.29047 -3.9883,6.57031 -2.1929,4.55967 -4.134,10.02716 -6.2051,16.79297 -4.1422,13.53163 -8.566,32.03469 -12.9472,54.14648 -8.7624,44.22359 -17.2555,102.66101 -21.4688,161.26761 -0.8417,11.7085 -1.3716,23.3561 -1.8437,34.957 -12.7181,44.6361 -27.1842,87.3054 -42.4766,120.6074 -9.7904,21.3204 -19.9691,38.8071 -29.4766,50.2032 -9.5074,11.396 -17.5719,15.6273 -22.705,15.705 a 13.319355,13.319355 0 0 0 -0.018,0 c -25.4344,0.4193 -39.5116,-11.5232 -50.377,-33.373 -5.0843,-10.2243 -8.8341,-22.6552 -11.4765,-36.2149 5.2756,-14.7832 9.7,-30.181 13.2578,-45.6015 7.6886,-33.3244 11.6726,-66.3858 12.8535,-91.7715 0.5904,-12.6929 0.5042,-23.3902 -0.3105,-31.7422 -0.4074,-4.17597 -0.9234,-7.69784 -2.0489,-11.27929 -0.5627,-1.79073 -1.2165,-3.62798 -2.7558,-5.88672 -1.5383,-2.25715 -4.5778,-5.59285 -9.8106,-6.57032 -8.1807,-1.52995 -13.9504,3.3696 -16.8476,6.78125 -2.8982,3.41278 -4.7438,6.97512 -6.586,11.13672 -3.6843,8.32321 -6.8756,19.05216 -9.7402,31.91016 -5.7292,25.7159 -9.8535,59.6119 -9.4219,94.0117 0.1975,15.7416 1.3694,31.5471 3.836,46.7617 -5.0847,13.2075 -10.8577,25.4145 -17.3575,35.6719 -14.1118,22.2704 -29.873,34.5679 -49.1621,34.8301 -9.6226,0.1102 -17.1102,-4.0146 -25.2558,-14.3945 -8.1486,-10.3837 -15.6139,-26.948 -21.3828,-47.5625 -7.4171,-26.5037 -12.1455,-59.5633 -14.6055,-94.9121 5.5777,-15.4046 10.9882,-31.0805 16.0859,-46.8926 19.0131,-58.97423 34.0213,-118.61726 39.9922,-164.8594 2.9855,-23.12107 3.8651,-42.75616 1.1992,-58.54493 -1.3329,-7.89438 -3.4807,-15.00914 -7.9355,-21.22656 -4.4549,-6.21741 -12.3023,-11.11115 -20.4981,-11.58398 a 13.319355,13.319355 0 0 0 -0.012,0 c -8.4115,-0.47725 -15.1799,4.36543 -19.4687,9.35351 -4.2889,4.98809 -7.3769,10.88571 -10.2891,17.875 -5.8244,13.9786 -10.5847,32.49008 -14.6523,54.59375 -8.1353,44.20734 -13.1422,102.45826 -13.1211,160.97851 0.01,18.9207 0.5961,37.7988 1.7285,56.2793 -14.4354,39.3057 -29.9899,76.1266 -44.8789,104.6094 -10.6134,20.3034 -20.9892,36.4952 -29.4356,46.0137 -4.2232,4.7592 -7.9898,7.7522 -10.1679,8.9121 -0.9931,0.5288 -1.3402,0.6555 -1.4922,0.7129 -13.6662,-5.1476 -22.7251,-21.2282 -27.1543,-47.7032 -4.4578,-26.6453 -3.4261,-61.373 0.2519,-95.3535 7.356,-67.9609 24.7852,-132.84569 24.7852,-132.84569 a 13.319355,13.319355 0 0 0 -23.7774,-11.08985 c -26.2862,37.62539 -58.9937,52.55877 -89.92771,57.17584 -4.91664,-11.25441 -11.54688,-20.66428 -20.89258,-27.15435 -31.14165,-21.71797 -58.00916,-24.44902 -75.96679,-14.33203 -8.98128,5.05988 -15.31029,13.4472 -16.94531,23.02929 -1.63503,9.5821 2.0542,20.22389 9.98242,27.01959 a 13.319355,13.319355 0 0 0 0.0644,0.055 c 3.86481,3.2703 7.58367,4.9921 12.7832,7.1895 5.19954,2.1974 11.56085,4.3875 18.95703,6.3457 14.25747,3.7748 32.38401,6.5917 52.4375,6.2129 2.23313,8.4465 4.05986,17.9682 5.03321,28.4199 2.98355,32.0373 0.28318,70.7531 -7.98828,103.8985 -8.27146,33.1453 -22.75414,60.1035 -38.24024,70.4472 -7.74305,5.1719 -15.23638,7.0175 -25.16211,5.0547 -9.92546,-1.9627 -22.60635,-8.4722 -37.5332,-22.2031 -16.0684,-14.7829 -26.95016,-38.869 -33.10742,-68.6563 10.30453,-36.9694 19.3212,-78.8719 26.86523,-120.8965 10.40579,-57.96605 18.02394,-115.75935 22.23047,-159.50192 2.10326,-21.87128 3.35753,-40.18199 3.66211,-53.53906 0.15229,-6.67854 0.0941,-12.04457 -0.33203,-16.53516 -0.21305,-2.24529 -0.44253,-4.20537 -1.20313,-6.70117 -0.38029,-1.2479 -0.83905,-2.66431 -2.13867,-4.61523 -1.29962,-1.95093 -4.00145,-5.01429 -8.73828,-6.08008 a 13.319355,13.319355 0 0 0 -0.0332,-0.008 c -4.12919,-0.91759 -7.80101,0.29614 -9.88867,1.4336 -2.08767,1.13745 -3.19138,2.245 -4.08594,3.19726 -1.78913,1.90454 -2.70999,3.4498 -3.6875,5.15039 -1.95503,3.40119 -3.72292,7.36939 -5.7168,12.36524 -3.98775,9.99169 -8.61528,23.85118 -13.51367,40.80469 -9.79678,33.90701 -20.57043,79.99363 -27.83984,129.27343 -7.26942,49.27981 -11.07488,101.67251 -6.53711,148.49801 0.86297,8.9051 2.13073,17.5583 3.63476,26.043 -3.25948,11.3673 -6.61707,22.166 -10.07812,32.082 -7.37269,21.1231 -15.26043,38.5255 -22.75586,49.8321 -7.49289,11.3027 -13.85032,14.8812 -16.46289,15.0234 -6.38462,0.3402 -10.1173,-1.3855 -14.79492,-6.4004 -4.67763,-5.0149 -9.35356,-13.8641 -12.96094,-25.5312 -7.21476,-23.3344 -10.30986,-57.1832 -10.71875,-91.3047 -0.81778,-68.2431 8.38476,-137.70705 8.38476,-137.70705 a 13.319355,13.319355 0 0 0 -26.07617,-5.16797 c 0,0 -16.12274,60.73012 -45.53906,124.13862 -14.70816,31.7043 -32.75019,63.9528 -53.17774,89.1309 -20.42754,25.1781 -42.99154,42.7636 -65.92968,47.7988 -11.08518,2.4334 -19.27682,1.1116 -26.84961,-2.7422 -7.57279,-3.8537 -14.68443,-10.7544 -21.10547,-20.5781 -12.84208,-19.6473 -22.0736,-50.4169 -27.74414,-82.334 -11.34109,-63.8341 -9.4668,-131.6172 -9.4668,-131.6172 a 13.319355,13.319355 0 0 0 -4.07422,-9.98041 c -4.1803,-4.02549 -10.6198,-7.01764 -16.92773,-6.71094 -6.30793,0.3067 -11.33236,3.14679 -15.32617,6.36914 -7.98763,6.4447 -13.76389,15.40081 -20.06641,26.58201 -12.60504,22.3624 -25.75653,53.8894 -39.96289,86.5391 -14.20636,32.6497 -29.402,66.3178 -44.75586,91.4297 -15.35386,25.1118 -31.33594,39.2803 -40.14062,40.1269 a 13.319355,13.319355 0 0 0 -0.0234,0 c -4.31093,0.4222 -6.36778,-0.4132 -9.80664,-3.8047 -3.43887,-3.3915 -7.32884,-9.9337 -10.49805,-18.8809 -6.32057,-17.8439 -9.89768,-44.487 -11.33008,-71.4902 5.08022,-25.0311 7.28975,-53.9984 4.86719,-86.8379 0.19062,-8.0999 -0.55905,-16.0702 -2.46094,-23.8203 -0.11376,-0.8335 -0.16936,-1.623 -0.28906,-2.461 a 13.319355,13.319355 0 0 0 -0.83789,-1.5117 c -0.36563,-1.2247 -0.68498,-2.4593 -1.10938,-3.6718 a 13.319355,13.319355 0 0 0 -0.008,-0.02 c -7.36141,-20.9219 -21.32213,-36.23635 -38.63672,-43.50583 -17.31458,-7.26947 -37.28069,-6.42311 -55.95898,1.49805 -37.35658,15.84232 -70.563918,58.96998 -81.773439,126.92768 a 13.319355,13.319355 0 0 0 -0.002,0 c -7.805086,47.4308 -6.058202,81.0987 2.742188,105.5175 1.787646,4.9603 3.992323,9.411 6.402343,13.5703 -26.752767,11.1072 -52.406465,14.285 -72.5332028,7.2168 -26.7157692,-9.382 -48.6248492,-36.4166 -55.5644532,-98.9336 -1.077403,-9.7722 -1.894244,-19.5595 -2.5625,-29.3281 14.075158,-37.9221 26.992576,-80.3396 37.564453,-121.93161 12.78661364,-50.30523 22.2227231,-98.83785 26.248047,-135.45117 2.012662,-18.30666 2.752522,-33.4905 1.566406,-45.44336 -0.593057,-5.97643 -1.475767,-11.15535 -4.115234,-16.40235 -2.6394665,-5.24699 -9.8206093,-11.58723 -17.765625,-11.29297 -10.334199,0.37655 -16.371555,6.85467 -21.34375,13.50977 -4.975162,6.65908 -9.27559,15.03546 -13.501953,25.2832 -8.452725,20.4955 -16.305015,48.44457 -22.699219,81.75391 -11.021677,57.41525 -17.500255,130.57428 -12.90039,205.90038 -2.213539,5.8446 -4.38902,11.9253 -6.644532,17.4551 -16.906229,41.4488 -36.414619,73.4267 -48.968749,82.6719 -35.82545,26.3142 -58.92806,29.9771 -86.67383,35.9648 -17.15373,3.7019 -35.86582,8.3826 -57.625,19.4102 4.74355,-55.5441 9.92643,-122.5579 17.09765,-191.9395 6.64546,-64.2948 14.87067,-129.15929 25.57618,-184.37499 10.7055,-55.2157 24.41065,-101.05365 39.48632,-125.29297 32.33023,-51.98193 60.876,-60.06274 82.93946,-56.85351 11.03173,1.60461 21.053804,6.62532 28.802735,12.45898 7.748931,5.83366 13.216294,13.01071 14.369141,15.31641 a 13.318024,13.318024 0 0 0 17.867187,5.95703 13.318024,13.318024 0 0 0 5.957031,-17.86914 c -4.180478,-8.36096 -11.547779,-16.68394 -22.173828,-24.6836 -10.626049,-7.99965 -24.520039,-15.14368 -40.988286,-17.53906 -4.11706,-0.59884 -8.35631,-0.86288 -12.69336,-0.75586 z M 1255.4082,798.93359 c -0.017,-0.006 0.084,0.14765 0.078,0.16211 -0.055,-0.002 -0.057,0.0227 -0.1133,0.0195 h -0.012 c 0.2355,0.0136 0.117,-0.1566 0.047,-0.18164 z m 1.0059,2.11719 c 0.859,1.6863 1.9181,4.38013 2.6504,8.7168 1.8445,10.92475 1.4527,28.96812 -1.3536,50.70117 -4.8008,37.1802 -16.4331,85.6154 -31.3105,135.04297 0.9822,-50.20148 5.44,-99.23202 12.2695,-136.34375 3.8647,-21.00045 8.5074,-38.29112 13.041,-49.17188 1.7424,-4.18173 3.3815,-6.99529 4.7032,-8.94531 z M -11.337891,811.65039 c 0.224585,8.4674 -0.349652,20.05934 -1.855468,33.75586 -3.808002,34.63661 -13.039243,82.43749 -25.585938,131.79883 -3.981737,15.66499 -8.392535,31.41502 -12.972656,47.06052 1.533222,-45.23424 6.476636,-87.79751 13.333984,-123.51951 6.147452,-32.02393 13.775006,-58.69801 21.166016,-76.61914 2.031478,-4.92576 4.025382,-9.00879 5.914062,-12.47656 z M 863.5625,880.4668 c -4.34101,40.71232 -11.13652,90.75226 -20.20898,141.291 -1.99483,11.1123 -4.17978,22.153 -6.37696,33.1563 1.06277,-26.1963 3.80155,-53.1606 7.66016,-79.3184 5.07091,-34.37602 11.95426,-67.15639 18.92578,-95.1289 z m 62.625,101.16992 c 8.31993,0.21547 20.6234,3.68946 36.98633,15.10547 a 13.319355,13.319355 0 0 0 0.0254,0.0156 c 1.86573,1.29565 3.87211,3.71081 5.88672,6.91801 -13.23353,-0.5833 -25.31744,-2.6723 -35.00196,-5.23637 -6.27567,-1.66155 -11.56282,-3.50855 -15.40625,-5.13281 -3.82677,-1.61722 -6.50532,-3.4719 -5.92187,-2.97461 -1.3275,-1.14994 -1.17346,-1.37133 -1.01953,-2.27344 0.15662,-0.9179 0.90969,-2.69595 3.76172,-4.30273 2.13902,-1.20509 5.69749,-2.24843 10.68945,-2.11914 z m 779.2793,1.52148 c 0.1646,0.1291 0.3695,0.38419 0.4863,0.73633 0.013,0.0395 0.037,0.17519 0.051,0.2168 -1.0263,-0.96105 -0.8683,-1.21289 -0.5371,-0.95313 z m -1523.49024,17.6953 c 5.92071,-0.1914 11.44507,0.8392 16.4336,2.9336 9.9725,4.1869 18.50868,12.7004 23.81445,27.7656 0.13812,0.3947 0.17808,0.8476 0.30664,1.2481 -0.49316,5.8381 -1.6471,23.3145 -2.3457,47.6992 -4.36317,14.0884 -11.37128,28.976 -21.02149,43.8691 -22.27008,34.3695 -56.71481,67.6797 -92.55468,89.0059 -0.94469,0.5621 -1.89059,1.0142 -2.83594,1.5586 -1.80231,-3.0758 -3.47818,-6.6063 -4.986331,-10.791 -6.459819,-17.9244 -8.878344,-47.4228 -1.517578,-92.1563 v 0 c 10.124389,-61.373 39.583109,-95.5789 65.892579,-106.7363 6.57751,-2.7894 12.89375,-4.2012 18.81445,-4.3926 z m 37.97852,140.2559 c -8.56324,37.8077 -23.96508,64.074 -36.57227,78.6719 a 13.319355,13.319355 0 0 0 -0.0586,0.068 c 0.0466,-0.055 -10.05298,7.3148 -21.61133,10.8848 -11.32079,3.4966 -24.57629,4.776 -35.45898,1.6875 36.65469,-23.0967 70.25609,-55.9103 93.70117,-91.3125 z m -529.1582,169.5 c -2.17013,21.5469 -4.2766,39.1764 -6.40235,49.9687 -3.90038,19.802 -10.98442,25.6199 -11.91406,25.959 -0.46482,0.1696 -0.0584,0.2904 -1.03711,-0.248 -0.97877,-0.5385 -2.92359,-2.2403 -4.63086,-5.3614 -6.54233,-11.9601 -8.23702,-41.8356 23.98438,-70.3183 z m 2138.92972,1.1562 c -4.3206,21.5985 -12.9921,38.2689 -33.7344,50.6035 0,8e-4 0,0 0,0 -19.3078,11.4343 -46.288,14.8659 -59.9727,10.3437 -6.8443,-2.2617 -9.632,-4.9939 -10.8691,-9.1835 -1.2365,-4.1874 -0.8514,-12.4884 6.6055,-25.875 5.9942,-10.6786 13.5808,-15.8146 24.6718,-19.3907 11.0956,-3.5775 25.6054,-4.7287 41.8418,-5.3027 9.9113,-0.3504 20.546,-0.5432 31.461,-1.1973 z"
       id="path994" />
    <path
       style="color:#000000;fill:#5e35b1;stroke-linecap:round;stroke-linejoin:round;-inkscape-stroke:none"
       d="m 743.35742,877.23242 a 13.318024,13.318024 0 0 0 -16.15039,9.68945 c -0.026,0.10415 -0.01,0.0889 -0.0312,0.17969 -1.64442,0.54583 -4.41183,1.58179 -7.13086,4.30078 a 13.318024,13.318024 0 0 0 0,18.83399 13.318024,13.318024 0 0 0 18.83399,0 c -1.68763,1.6876 -3.30811,2.09226 -2.96289,1.98242 0.34521,-0.10984 2.24572,-0.52618 4.83398,-1.82031 5.17653,-2.58827 10.39546,-9.40225 12.29883,-17.01563 a 13.318024,13.318024 0 0 0 -9.69141,-16.15039 z"
       id="path996" />
    <path
       style="color:#000000;fill:#5e35b1;stroke-linecap:round;stroke-linejoin:round;-inkscape-stroke:none"
       d="m 1119.3574,871.89844 a 13.318024,13.318024 0 0 0 -16.1504,9.6914 c -0.026,0.10415 -0.01,0.0889 -0.031,0.17969 -1.6445,0.54585 -4.4119,1.57989 -7.1309,4.29883 a 13.318024,13.318024 0 0 0 0,18.83398 13.318024,13.318024 0 0 0 18.834,0 c -1.6876,1.68761 -3.3081,2.09227 -2.9629,1.98243 0.3452,-0.10985 2.2457,-0.52618 4.834,-1.82032 5.1765,-2.58826 10.3955,-9.40224 12.2988,-17.01562 a 13.318024,13.318024 0 0 0 -9.6914,-16.15039 z"
       id="path998" />
    <path
       style="color:#000000;fill:#5e35b1;stroke-linecap:round;stroke-linejoin:round;-inkscape-stroke:none"
       d="m 1410.0254,895.89844 a 13.318024,13.318024 0 0 0 -16.1504,9.6914 c -0.026,0.10305 -0.01,0.0878 -0.031,0.17774 -1.6441,0.5456 -4.4128,1.58065 -7.1329,4.30078 a 13.318024,13.318024 0 0 0 0,18.83398 13.318024,13.318024 0 0 0 18.834,0 c -1.6877,1.68774 -3.3081,2.09226 -2.9629,1.98243 0.3452,-0.10984 2.2477,-0.52618 4.836,-1.82032 5.1765,-2.58826 10.3935,-9.4022 12.2968,-17.01562 a 13.318024,13.318024 0 0 0 -9.6894,-16.15039 z"
       id="path1000" />
    <path
       style="color:#000000;fill:#5e35b1;stroke-linecap:round;stroke-linejoin:round;-inkscape-stroke:none"
       d="m -161.06055,951.25 a 13.318024,13.318024 0 0 0 -6.8164,1.03516 c -54.70252,23.93234 -157.65465,35.3886 -222.35547,54.07224 a 13.318024,13.318024 0 0 0 -9.10156,16.4903 13.318024,13.318024 0 0 0 16.49023,9.0996 c 59.96572,-17.3163 163.01187,-27.8589 225.64258,-55.2598 a 13.318024,13.318024 0 0 0 6.86328,-17.53906 13.318024,13.318024 0 0 0 -10.72266,-7.89844 z"
       id="path1002" />
    <path
       style="color:#000000;fill:#5e35b1;stroke-linecap:round;stroke-linejoin:round;-inkscape-stroke:none"
       d="m 615.53711,967.61133 a 13.318024,13.318024 0 0 0 -16.2832,9.46679 c -10.56599,39.91598 -54.27602,94.44288 -99.68555,144.82418 -45.40953,50.3814 -91.69725,95.7665 -108.78906,131.504 a 13.318024,13.318024 0 0 0 6.26953,17.7617 13.318024,13.318024 0 0 0 17.75976,-6.2696 c 12.2415,-25.5958 58.62121,-74.2102 104.54493,-125.1621 45.92371,-50.9518 92.21445,-105.0912 105.64843,-155.84177 a 13.318024,13.318024 0 0 0 -9.46484,-16.2832 z"
       id="path1004" />
    <path
       style="color:#000000;fill:#5e35b1;stroke-linecap:round;stroke-linejoin:round;-inkscape-stroke:none"
       d="m 1711.0137,875.16992 a 13.318024,13.318024 0 0 0 -6.6875,1.67383 c -4.8326,2.68474 -22.429,7.05267 -44.2754,9.37891 -21.8465,2.32624 -48.6853,3.53209 -76.043,3.77929 -54.7153,0.49442 -112.5764,-3.11809 -135.8711,-7.89648 a 13.318024,13.318024 0 0 0 -15.7207,10.37109 13.318024,13.318024 0 0 0 10.3692,15.72266 c 28.7052,5.88826 85.5117,8.94308 141.4628,8.4375 27.9756,-0.25279 55.4696,-1.46232 78.6231,-3.92774 23.1535,-2.46542 41.2232,-5.26678 54.3906,-12.58203 a 13.318024,13.318024 0 0 0 5.1758,-18.10937 13.318024,13.318024 0 0 0 -11.4238,-6.84766 z"
       id="path1006" />
  </g>
</svg>
