<?xml version="1.0" standalone="no"?>
<!DOCTYPE svg PUBLIC "-//W3C//DTD SVG 20010904//EN"
 "http://www.w3.org/TR/2001/REC-SVG-20010904/DTD/svg10.dtd">
<svg version="1.0" xmlns="http://www.w3.org/2000/svg"
 width="700.000000pt" height="700.000000pt" viewBox="0 0 700.000000 700.000000"
 preserveAspectRatio="xMidYMid meet">
<metadata>
Created by potrace 1.14, written by Peter Selinger 2001-2017
</metadata>
<g transform="translate(0.000000,700.000000) scale(0.100000,-0.100000)"
fill="#000000" stroke="none">
<path d="M3174 6711 c-2 -2 -4 -61 -4 -131 l0 -127 -642 -1 c-354 0 -649 -1
-655 -1 -18 -1 -19 -661 -2 -661 10 0 404 -124 479 -150 14 -5 126 -41 250
-80 124 -39 283 -90 354 -114 l130 -42 -612 0 -612 1 0 -52 c-1 -67 -1 -172 0
-418 0 -140 3 -195 12 -195 10 0 310 -93 463 -145 72 -24 97 -31 485 -155 124
-39 234 -75 245 -79 11 -4 -256 -7 -593 -7 l-612 1 0 -330 0 -330 108 -33 c59
-19 217 -69 352 -112 135 -43 353 -113 485 -155 132 -43 243 -80 248 -84 4 -4
-263 -7 -592 -7 l-600 1 -3 -45 c-2 -25 -2 -173 0 -330 l3 -285 227 -72 c125
-39 346 -110 492 -156 146 -47 318 -102 383 -122 64 -20 117 -38 117 -40 0 -1
-273 -2 -607 -2 l-608 1 -3 -332 c-2 -255 1 -332 10 -332 7 0 66 -18 133 -39
66 -21 215 -69 330 -106 583 -186 715 -229 715 -235 0 -4 -268 -6 -595 -6
l-595 1 0 -327 c0 -255 3 -328 13 -329 6 0 300 -1 652 -1 l640 -1 5 -131 5
-131 315 -1 c173 0 321 2 328 4 9 3 12 39 12 132 l0 127 655 -1 655 -1 0 78
c1 111 1 307 0 455 l0 127 -118 37 c-114 36 -562 179 -792 253 -63 20 -160 51
-214 69 l-100 33 612 -1 611 -1 3 35 c2 19 2 168 0 331 l-3 297 -27 7 c-24 5
-153 46 -632 200 -74 24 -228 73 -342 110 -115 36 -208 67 -208 69 0 2 271 3
603 3 l602 0 3 329 2 329 -62 19 c-84 26 -157 49 -453 144 -137 44 -344 111
-460 147 -115 37 -214 71 -218 75 -4 4 262 7 593 6 l600 -1 0 331 0 332 -27 7
c-16 3 -107 32 -203 63 -96 31 -179 57 -185 58 -5 1 -93 29 -195 62 -102 33
-282 91 -400 129 l-215 69 610 0 610 0 3 331 2 331 -27 6 c-28 7 -359 111
-463 146 -30 10 -136 44 -235 75 -99 32 -187 60 -195 63 -8 3 -19 6 -25 8 -5
1 -71 22 -145 47 l-135 44 590 -1 c325 -1 600 1 613 3 l22 3 0 324 0 324 -27
1 c-16 0 -310 1 -655 1 l-628 1 0 129 c0 70 -3 129 -7 129 -23 4 -645 4 -649
0z"/>
</g>
</svg>
